<svg width="27" height="27" viewBox="0 0 27 27" fill="none" xmlns="http://www.w3.org/2000/svg">
<path d="M27 0.000985114C26.9414 2.08262 26.5462 4.14104 25.8296 6.09633L20.9039 1.1704C22.8582 0.449357 24.9176 0.0549532 27 0.000985114ZM19.9187 1.5694L25.4602 7.11107L25.0287 7.94257L19.0567 2.03145C19.5552 1.74378 19.6222 1.73097 19.9187 1.5694ZM18.1642 2.55459L24.5361 8.83514C21.7482 13.5365 17.3445 17.0772 12.9311 19.3333C12.3587 19.62 11.7814 19.9027 11.1755 20.1648C11.077 20.2081 10.9667 20.2466 10.8672 20.2879L6.71183 16.1009C8.85157 11.0538 12.736 5.76235 18.1642 2.55459ZM17.6716 7.32683C17.3851 7.32791 17.1015 7.38556 16.8373 7.49646C16.5731 7.60737 16.3333 7.76935 16.1318 7.97311C15.2846 8.82037 15.2846 10.2055 16.1318 11.0518C16.9791 11.8991 18.3642 11.8991 19.2104 11.0518C20.0576 10.2046 20.0576 8.82037 19.2104 7.97311C19.0091 7.76976 18.7696 7.6081 18.5057 7.49737C18.2419 7.38665 17.9588 7.32903 17.6726 7.32781L17.6716 7.32683ZM17.6716 8.31201C17.978 8.31201 18.2982 8.41546 18.5336 8.65092C18.6455 8.76175 18.7343 8.89364 18.7948 9.03898C18.8554 9.18432 18.8866 9.34022 18.8866 9.49768C18.8866 9.65515 18.8554 9.81105 18.7948 9.95639C18.7343 10.1017 18.6455 10.2336 18.5336 10.3444C18.3037 10.5706 17.9941 10.6973 17.6716 10.6973C17.3491 10.6973 17.0396 10.5706 16.8096 10.3444C16.6976 10.2336 16.6087 10.1016 16.548 9.95622C16.4874 9.81079 16.4561 9.65477 16.4561 9.49719C16.4561 9.33961 16.4874 9.18359 16.548 9.03817C16.6087 8.89274 16.6976 8.76078 16.8096 8.64993C17.0409 8.42763 17.3509 8.3061 17.6716 8.31201ZM8.03488 8.65092C8.59051 8.65781 9.12446 8.79475 9.63673 8.95829C9.25351 9.48438 8.89098 10.0558 8.52746 10.6213C8.29004 10.9838 8.04079 11.3621 7.82012 11.7296C7.48481 12.3054 7.16647 12.8908 6.86551 13.4852C6.65173 13.897 6.47243 14.3049 6.28033 14.7167C6.26457 14.7512 6.23501 14.7758 6.21925 14.8093C5.50403 14.0409 4.59474 13.5975 3.44802 13.7926C2.45992 13.9611 1.28464 14.5945 0 15.4251C1.26986 13.1601 2.76236 11.2163 4.40263 10.0666C5.44394 9.33759 6.49017 8.86076 7.48123 8.68146C7.66464 8.6529 7.84945 8.64267 8.03488 8.65092ZM18.041 17.3639C18.5366 18.9205 18.2282 20.746 16.9328 22.5972C15.7831 24.2395 13.8423 25.7301 11.5755 27C12.4089 25.7114 13.0385 24.542 13.2069 23.5519C13.401 22.413 12.9478 21.4948 12.1922 20.7805C12.7242 20.5352 13.2591 20.2929 13.7921 20.0111C14.2918 19.7467 14.7845 19.4695 15.2698 19.1796C16.2235 18.6214 17.1484 18.0154 18.041 17.3639ZM5.63998 17.8624L8.84172 21.0337L8.1334 21.4642L5.24001 18.6013L5.63998 17.8624ZM3.79283 20.5717L1.4531 22.9115L1.94567 23.3735L4.25486 21.0337L3.79283 20.5717ZM4.74744 21.4948L0.991061 25.2513L1.45408 25.7133L5.20947 21.9568L4.74744 21.4948ZM5.67052 22.4504L2.86974 25.2513L3.33079 25.7133L6.13256 22.9115L5.67052 22.4504ZM0.991061 23.3735L0.530011 23.8346L0.991061 24.2976L1.45408 23.8346L0.991061 23.3735ZM0.530011 25.7133L0.0669903 26.1744L0.530011 26.6375L0.991061 26.1744L0.530011 25.7133ZM2.40771 25.7133L1.94567 26.1744L2.40771 26.6375L2.86974 26.1744L2.40771 25.7133Z" fill="#6AB541"/>
</svg>
