<svg width="54" height="57" viewBox="0 0 54 57" fill="none" xmlns="http://www.w3.org/2000/svg">
<path d="M9.35535 41.2365C9.0486 40.9321 8.63262 40.761 8.19887 40.761C7.76513 40.761 7.34914 40.9321 7.0424 41.2365L4.92736 43.3362L2.81233 41.2365C2.66144 41.0814 2.48094 40.9577 2.28137 40.8726C2.08181 40.7875 1.86716 40.7427 1.64997 40.7408C1.43277 40.7389 1.21738 40.78 1.01635 40.8617C0.815322 40.9433 0.632686 41.0639 0.479101 41.2164C0.325516 41.3688 0.204056 41.5502 0.121809 41.7497C0.0395614 41.9493 -0.0018256 42.1632 6.17613e-05 42.3788C0.00194912 42.5944 0.0470735 42.8075 0.132802 43.0056C0.21853 43.2037 0.343146 43.3829 0.499377 43.5327L2.61441 45.6325L0.499377 47.7322C0.343146 47.882 0.21853 48.0612 0.132802 48.2593C0.0470735 48.4575 0.00194912 48.6706 6.17613e-05 48.8862C-0.0018256 49.1018 0.0395614 49.3157 0.121809 49.5152C0.204056 49.7148 0.325516 49.8961 0.479101 50.0486C0.632686 50.2011 0.815322 50.3216 1.01635 50.4033C1.21738 50.485 1.43277 50.526 1.64997 50.5242C1.86716 50.5223 2.08181 50.4775 2.28137 50.3924C2.48094 50.3073 2.66144 50.1836 2.81233 50.0285L4.92736 47.9287L7.0424 50.0285C7.3509 50.3243 7.7641 50.488 8.19299 50.4843C8.62187 50.4806 9.03214 50.3098 9.33543 50.0087C9.63871 49.7076 9.81074 49.3003 9.81447 48.8745C9.81819 48.4487 9.65332 48.0385 9.35535 47.7322L7.24032 45.6325L9.35535 43.5327C9.66201 43.2282 9.83428 42.8152 9.83428 42.3846C9.83428 41.954 9.66201 41.541 9.35535 41.2365ZM24.0771 41.2365C23.7704 40.9321 23.3544 40.761 22.9207 40.761C22.4869 40.761 22.0709 40.9321 21.7642 41.2365L19.6492 43.3362L17.5341 41.2365C17.2256 40.9407 16.8124 40.777 16.3835 40.7807C15.9546 40.7844 15.5444 40.9552 15.2411 41.2563C14.9378 41.5574 14.7658 41.9647 14.7621 42.3905C14.7583 42.8162 14.9232 43.2265 15.2212 43.5327L17.3362 45.6325L15.2212 47.7322C15.0649 47.882 14.9403 48.0612 14.8546 48.2593C14.7689 48.4575 14.7237 48.6706 14.7219 48.8862C14.72 49.1018 14.7614 49.3157 14.8436 49.5152C14.9258 49.7148 15.0473 49.8961 15.2009 50.0486C15.3545 50.2011 15.5371 50.3216 15.7381 50.4033C15.9392 50.485 16.1546 50.526 16.3718 50.5242C16.589 50.5223 16.8036 50.4775 17.0032 50.3924C17.2027 50.3073 17.3832 50.1836 17.5341 50.0285L19.6492 47.9287L21.7642 50.0285C22.0727 50.3243 22.4859 50.488 22.9148 50.4843C23.3437 50.4806 23.7539 50.3098 24.0572 50.0087C24.3605 49.7076 24.5325 49.3003 24.5363 48.8745C24.54 48.4487 24.3751 48.0385 24.0771 47.7322L21.9621 45.6325L24.0771 43.5327C24.3838 43.2282 24.5561 42.8152 24.5561 42.3846C24.5561 41.954 24.3838 41.541 24.0771 41.2365ZM38.7989 41.2365C38.4922 40.9321 38.0762 40.761 37.6425 40.761C37.2087 40.761 36.7927 40.9321 36.486 41.2365L34.3709 43.3362L32.2559 41.2365C31.9474 40.9407 31.5342 40.777 31.1053 40.7807C30.6764 40.7844 30.2662 40.9552 29.9629 41.2563C29.6596 41.5574 29.4876 41.9647 29.4838 42.3905C29.4801 42.8162 29.645 43.2265 29.943 43.5327L32.058 45.6325L29.943 47.7322C29.7867 47.882 29.6621 48.0612 29.5764 48.2593C29.4907 48.4575 29.4455 48.6706 29.4436 48.8862C29.4418 49.1018 29.4831 49.3157 29.5654 49.5152C29.6476 49.7148 29.7691 49.8961 29.9227 50.0486C30.0763 50.2011 30.2589 50.3216 30.4599 50.4033C30.661 50.485 30.8764 50.526 31.0936 50.5242C31.3107 50.5223 31.5254 50.4775 31.725 50.3924C31.9245 50.3073 32.105 50.1836 32.2559 50.0285L34.3709 47.9287L36.486 50.0285C36.7945 50.3243 37.2077 50.488 37.6366 50.4843C38.0655 50.4806 38.4757 50.3098 38.779 50.0087C39.0823 49.7076 39.2543 49.3003 39.258 48.8745C39.2618 48.4487 39.0969 48.0385 38.7989 47.7322L36.6839 45.6325L38.7989 43.5327C39.1056 43.2282 39.2779 42.8152 39.2779 42.3846C39.2779 41.954 39.1056 41.541 38.7989 41.2365ZM51.4057 45.6325L53.5207 43.5327C53.8187 43.2265 53.9836 42.8162 53.9798 42.3905C53.9761 41.9647 53.8041 41.5574 53.5008 41.2563C53.1975 40.9552 52.7873 40.7844 52.3584 40.7807C51.9295 40.777 51.5163 40.9407 51.2078 41.2365L49.0927 43.3362L46.9777 41.2365C46.6692 40.9407 46.256 40.777 45.8271 40.7807C45.3982 40.7844 44.988 40.9552 44.6847 41.2563C44.3814 41.5574 44.2094 41.9647 44.2056 42.3905C44.2019 42.8162 44.3668 43.2265 44.6647 43.5327L46.7798 45.6325L44.6647 47.7322C44.5085 47.882 44.3839 48.0612 44.2982 48.2593C44.2124 48.4575 44.1673 48.6706 44.1654 48.8862C44.1636 49.1018 44.2049 49.3157 44.2872 49.5152C44.3694 49.7148 44.4909 49.8961 44.6445 50.0486C44.7981 50.2011 44.9807 50.3216 45.1817 50.4033C45.3828 50.485 45.5982 50.526 45.8153 50.5242C46.0325 50.5223 46.2472 50.4775 46.4468 50.3924C46.6463 50.3073 46.8268 50.1836 46.9777 50.0285L49.0927 47.9287L51.2078 50.0285C51.5163 50.3243 51.9295 50.488 52.3584 50.4843C52.7873 50.4806 53.1975 50.3098 53.5008 50.0087C53.8041 49.7076 53.9761 49.3003 53.9798 48.8745C53.9836 48.4487 53.8187 48.0385 53.5207 47.7322L51.4057 45.6325ZM8.19887 53.7521H1.65586C1.22203 53.7521 0.805966 53.9232 0.499202 54.2278C0.192439 54.5323 0.0201004 54.9454 0.0201004 55.3761C0.0201004 55.8068 0.192439 56.2198 0.499202 56.5244C0.805966 56.8289 1.22203 57 1.65586 57H8.19887C8.6327 57 9.04876 56.8289 9.35553 56.5244C9.66229 56.2198 9.83463 55.8068 9.83463 55.3761C9.83463 54.9454 9.66229 54.5323 9.35553 54.2278C9.04876 53.9232 8.6327 53.7521 8.19887 53.7521ZM22.9207 53.7521H16.3776C15.9438 53.7521 15.5278 53.9232 15.221 54.2278C14.9142 54.5323 14.7419 54.9454 14.7419 55.3761C14.7419 55.8068 14.9142 56.2198 15.221 56.5244C15.5278 56.8289 15.9438 57 16.3776 57H22.9207C23.3545 57 23.7706 56.8289 24.0773 56.5244C24.3841 56.2198 24.5564 55.8068 24.5564 55.3761C24.5564 54.9454 24.3841 54.5323 24.0773 54.2278C23.7706 53.9232 23.3545 53.7521 22.9207 53.7521ZM37.6425 53.7521H31.0994C30.6656 53.7521 30.2495 53.9232 29.9428 54.2278C29.636 54.5323 29.4637 54.9454 29.4637 55.3761C29.4637 55.8068 29.636 56.2198 29.9428 56.5244C30.2495 56.8289 30.6656 57 31.0994 57H37.6425C38.0763 57 38.4923 56.8289 38.7991 56.5244C39.1059 56.2198 39.2782 55.8068 39.2782 55.3761C39.2782 54.9454 39.1059 54.5323 38.7991 54.2278C38.4923 53.9232 38.0763 53.7521 37.6425 53.7521ZM52.3642 53.7521H45.8212C45.3874 53.7521 44.9713 53.9232 44.6646 54.2278C44.3578 54.5323 44.1855 54.9454 44.1855 55.3761C44.1855 55.8068 44.3578 56.2198 44.6646 56.5244C44.9713 56.8289 45.3874 57 45.8212 57H52.3642C52.7981 57 53.2141 56.8289 53.5209 56.5244C53.8277 56.2198 54 55.8068 54 55.3761C54 54.9454 53.8277 54.5323 53.5209 54.2278C53.2141 53.9232 52.7981 53.7521 52.3642 53.7521ZM40.9958 14.1282H37.9696V10.8803C37.9696 7.9947 36.8149 5.22724 34.7596 3.18678C32.7043 1.14632 29.9167 0 27.0101 0C24.1034 0 21.3158 1.14632 19.2605 3.18678C17.2052 5.22724 16.0505 7.9947 16.0505 10.8803V14.1282H13.0243C12.8089 14.126 12.5952 14.1666 12.3958 14.2474C12.1963 14.3282 12.0152 14.4478 11.8628 14.599C11.7105 14.7502 11.5901 14.9301 11.5087 15.1281C11.4272 15.3261 11.3864 15.5383 11.3886 15.7521V31.0171C11.3895 32.3089 11.9068 33.5476 12.8269 34.461C13.747 35.3745 14.9946 35.888 16.2959 35.8889H37.7242C39.0255 35.888 40.2731 35.3745 41.1932 34.461C42.1133 33.5476 42.6306 32.3089 42.6315 31.0171V15.7521C42.6337 15.5383 42.5929 15.3261 42.5115 15.1281C42.43 14.9301 42.3096 14.7502 42.1573 14.599C42.0049 14.4478 41.8238 14.3282 41.6243 14.2474C41.4249 14.1666 41.2112 14.126 40.9958 14.1282ZM19.322 10.8803C19.322 8.85608 20.132 6.91473 21.5738 5.48336C23.0156 4.052 24.9711 3.24786 27.0101 3.24786C29.049 3.24786 31.0045 4.052 32.4463 5.48336C33.8881 6.91473 34.6981 8.85608 34.6981 10.8803V14.1282H19.322V10.8803Z" fill="#6AB541"/>
</svg>
