<svg width="22" height="22" viewBox="0 0 22 22" fill="none" xmlns="http://www.w3.org/2000/svg">
<path d="M20.7255 3.5572L18.0838 0.915432C17.8567 0.698933 17.555 0.578156 17.2413 0.578156C16.9275 0.578156 16.6258 0.698933 16.3987 0.915432L14.0497 3.2716H1.44776C1.06903 3.2716 0.705821 3.42205 0.438022 3.68985C0.170223 3.95765 0.0197754 4.32086 0.0197754 4.69959V20.4074C0.0197754 20.7861 0.170223 21.1493 0.438022 21.4171C0.705821 21.6849 1.06903 21.8354 1.44776 21.8354H17.1556C17.5343 21.8354 17.8975 21.6849 18.1653 21.4171C18.4331 21.1493 18.5836 20.7861 18.5836 20.4074V7.3842L20.7255 5.24222C20.9488 5.01866 21.0742 4.71564 21.0742 4.39971C21.0742 4.08378 20.9488 3.78076 20.7255 3.5572V3.5572ZM10.6083 13.3603L7.61665 14.0243L8.33064 11.0613L15.1493 4.22835L17.4555 6.53455L10.6083 13.3603ZM18.2266 5.7206L15.9204 3.4144L17.2413 2.09352L19.5475 4.39971L18.2266 5.7206Z" fill="#6AB541"/>
</svg>
