<svg width="21" height="21" viewBox="0 0 21 21" fill="none" xmlns="http://www.w3.org/2000/svg">
<g clip-path="url(#clip0_480_1905)">
<path d="M9.73611 10.7532C11.3341 10.7532 12.6294 9.45783 12.6294 7.85989C12.6294 6.26194 11.3341 4.96655 9.73611 4.96655C8.13816 4.96655 6.84277 6.26194 6.84277 7.85989C6.84277 9.45783 8.13816 10.7532 9.73611 10.7532Z" fill="white"/>
<path d="M15.5227 12.4066C16.6641 12.4066 17.5894 11.4813 17.5894 10.3399C17.5894 9.1985 16.6641 8.27322 15.5227 8.27322C14.3813 8.27322 13.4561 9.1985 13.4561 10.3399C13.4561 11.4813 14.3813 12.4066 15.5227 12.4066Z" fill="white"/>
<path d="M4.00807 12.4066C5.14946 12.4066 6.07474 11.4813 6.07474 10.3399C6.07474 9.1985 5.14946 8.27322 4.00807 8.27322C2.86668 8.27322 1.94141 9.1985 1.94141 10.3399C1.94141 11.4813 2.86668 12.4066 4.00807 12.4066Z" fill="white"/>
<path d="M9.73616 11.5799C8.3116 11.5816 6.94589 12.1483 5.93857 13.1556C4.93126 14.163 4.36458 15.5287 4.36283 16.9532C4.36283 17.0629 4.40637 17.168 4.48389 17.2455C4.5614 17.323 4.66654 17.3666 4.77616 17.3666H14.6962C14.8058 17.3666 14.9109 17.323 14.9884 17.2455C15.0659 17.168 15.1095 17.0629 15.1095 16.9532C15.1095 13.9905 12.6989 11.5799 9.73616 11.5799ZM4.72077 13.3225C4.46751 13.2658 4.209 13.2359 3.94949 13.2332C2.96322 13.2343 2.01766 13.6266 1.32026 14.324C0.622865 15.0214 0.230586 15.967 0.229492 16.9532C0.229492 17.0629 0.27304 17.168 0.350555 17.2455C0.42807 17.323 0.533203 17.3666 0.642826 17.3666H3.61221C3.56326 17.2342 3.53753 17.0944 3.53616 16.9532C3.53616 15.5967 3.97925 14.3443 4.72077 13.3225ZM15.5228 13.2332C15.2616 13.2332 15.0045 13.2688 14.7515 13.3225C15.521 14.3767 15.9358 15.6481 15.9362 16.9532C15.9362 17.0987 15.9064 17.2368 15.8601 17.3666H18.8295C18.9391 17.3666 19.0442 17.323 19.1218 17.2455C19.1993 17.168 19.2428 17.0629 19.2428 16.9532C19.2428 14.9023 17.5738 13.2332 15.5228 13.2332Z" fill="white"/>
</g>
<defs>
<clipPath id="clip0_480_1905">
<rect width="19.84" height="19.84" fill="white" transform="translate(0.229492 0.833221)"/>
</clipPath>
</defs>
</svg>
